<?xml version="1.0" encoding="UTF-8"?>
<!-- Generator: Adobe Illustrator 19.1.0, SVG Export Plug-In . SVG Version: 6.00 Build 0)  -->
<svg version="1.1" id="Layer_1" xmlns="http://www.w3.org/2000/svg" xmlns:xlink="http://www.w3.org/1999/xlink" x="0px" y="0px" viewBox="0 0 510.2 99.2" enable-background="new 0 0 510.2 99.2" xml:space="preserve">
<g>
	<path fill="#A4DCE0" d="M73.3,59.6c0-18.7-15.1-33.8-33.8-33.8S5.7,41,5.7,59.6c0,18.7,15.1,33.8,33.8,33.8S73.3,78.3,73.3,59.6   L73.3,59.6z M58.8,59.6c0,3.2-2.6,5.8-5.8,5.8h0h-7.7v7.7c0,3.2-2.6,5.8-5.8,5.8c-3.2,0-5.8-2.6-5.8-5.8v-7.7H26   c-3.2,0-5.8-2.6-5.8-5.8c0-3.2,2.6-5.8,5.8-5.8h7.7v-7.7v0c0-3.2,2.6-5.8,5.8-5.8c3.2,0,5.8,2.6,5.8,5.8v0v7.7H53h0   C56.2,53.8,58.8,56.4,58.8,59.6L58.8,59.6z"/>
	<g>
		<g>
			<path fill="#58595B" d="M117.4,28.4c12.5,0,16.2,4.9,16.2,4.9h0.2c0,0-0.1-1.2-0.1-2.8V5.8h20.8v85.8H135v-4.1     c0-1.9,0.1-3.5,0.1-3.5h-0.2c0,0-5.2,9-17.9,9c-16.8,0-27.8-13.2-27.8-32.4C89.2,41.1,101,28.4,117.4,28.4z M122.2,75.9     c6.2,0,12.1-4.6,12.1-15.2c0-7.4-4-14.8-12.1-14.8c-6.5,0-12.1,5.3-12.1,14.8C110.1,69.9,115,75.9,122.2,75.9z"/>
			<path fill="#58595B" d="M199,28.4c19.6,0,35.2,13.1,35.2,32.5c0,19.3-15.6,32.2-35,32.2c-19.4,0-35-12.8-35-32.2     C164.1,41.5,179.7,28.4,199,28.4z M199.1,75.8c7.6,0,14-5.6,14-14.9c0-9.4-6.5-15.2-14-15.2c-7.6,0-14,5.9-14,15.2     C185.1,70.1,191.6,75.8,199.1,75.8z"/>
			<path fill="#58595B" d="M278.2,28.4c16.8,0,24.6,9.4,24.6,9.4L294,51.7c0,0-6-6-14.5-6c-9.8,0-14.8,7.4-14.8,14.8     c0,7.3,5,15.4,15.5,15.4c8.6,0,16.9-7.4,16.9-7.4l7.6,14.5c0,0-9.2,10.2-26.5,10.2c-22.1,0-34.4-15.4-34.4-32.4     C243.8,44.1,256,28.4,278.2,28.4z"/>
			<path fill="#58595B" d="M338.6,29.8c14.6,0,19.7,11.4,19.7,11.4h0.2c0,0-0.2-2-0.2-4.6V7.3h8.2v84.4h-7.9v-6.4     c0-2.6,0.2-4.3,0.2-4.3h-0.2c0,0-4.9,12.1-20.8,12.1c-16.2,0-26.3-13-26.3-31.7C311.4,42.3,322.7,29.8,338.6,29.8z M338.9,85.7     c10.1,0,19.6-7.2,19.6-24.4c0-12.2-6.2-24.2-19.2-24.2c-10.7,0-19.4,9-19.4,24.2C319.8,76.3,327.6,85.7,338.9,85.7z"/>
			<path fill="#58595B" d="M407.8,29.8c17.6,0,31.9,13.4,31.9,31.3c0,18.2-14.3,31.9-31.9,31.9c-17.6,0-31.9-13.7-31.9-31.9     C375.9,43.3,390.2,29.8,407.8,29.8z M407.8,85.7c13,0,23.5-10.6,23.5-24.6c0-13.7-10.6-23.9-23.5-23.9c-13,0-23.5,10.2-23.5,23.9     C384.3,75.2,394.8,85.7,407.8,85.7z"/>
			<path fill="#58595B" d="M481,29.8c14.8,0,22.1,8.6,22.1,8.6l-4.2,6.1c0,0-6.7-7.3-17.6-7.3c-13.2,0-23.5,9.8-23.5,24.2     c0,14.2,10.4,24.2,23.8,24.2c12.2,0,19.3-8.5,19.3-8.5l3.7,6.4c0,0-8.2,9.5-23.5,9.5c-17.9,0-31.7-12.8-31.7-31.6     C449.3,42.9,463.2,29.8,481,29.8z"/>
		</g>
	</g>
</g>
</svg>